<?xml version="1.0" encoding="UTF-8" standalone="no"?>
<!DOCTYPE svg PUBLIC "-//W3C//DTD SVG 1.1//EN"
 "http://www.w3.org/Graphics/SVG/1.1/DTD/svg11.dtd">
<!-- Generated by graphviz version 2.38.0 (20140413.2041)
 -->
<!-- Title: %3 Pages: 1 -->
<svg width="630pt" height="479pt"
 viewBox="0.00 0.00 630.47 479.00" xmlns="http://www.w3.org/2000/svg" xmlns:xlink="http://www.w3.org/1999/xlink">
<g id="graph0" class="graph" transform="scale(1 1) rotate(0) translate(4 475)">
<title>%3</title>
<polygon fill="#333333" stroke="none" points="-4,4 -4,-475 626.474,-475 626.474,4 -4,4"/>
<text text-anchor="middle" x="311.237" y="-9.2" font-family="Times New Roman,serif" font-size="16.00" fill="white">Network Map</text>
<!-- R2 -->
<g id="node1" class="node"><title>R2</title>
<polygon fill="#006699" stroke="#006699" points="394.974,-99 317.974,-99 317.974,-26 394.974,-26 394.974,-99"/>
<text text-anchor="middle" x="356.474" y="-58.8" font-family="Helvetica,sans-Serif" font-size="14.00" fill="white">R2</text>
</g>
<!-- SW1 -->
<g id="node2" class="node"><title>SW1</title>
<polygon fill="#006699" stroke="#006699" points="339.974,-223 248.974,-223 248.974,-150 339.974,-150 339.974,-223"/>
<text text-anchor="middle" x="294.474" y="-182.8" font-family="Helvetica,sans-Serif" font-size="14.00" fill="white">SW1</text>
</g>
<!-- R2&#45;&#45;SW1 -->
<g id="edge6" class="edge"><title>R2&#45;&#45;SW1</title>
<path fill="none" stroke="green" stroke-dasharray="5,2" d="M317.884,-68.4933C288.438,-74.5512 249.754,-87.8672 230.474,-117 220.054,-132.744 232.218,-148.284 248.638,-160.573"/>
<text text-anchor="middle" x="280.474" y="-120.8" font-family="Courier,monospace" font-size="14.00" fill="white"> &#160;&#160;&#160;&#160;&#160;&#160;&#160;&#160;&#160;&#160;&#160;</text>
<text text-anchor="middle" x="223.638" y="-149.373" font-family="Courier,monospace" font-size="14.00" fill="white">Eth0/2</text>
<text text-anchor="middle" x="292.884" y="-57.2933" font-family="Courier,monospace" font-size="14.00" fill="white">Eth0/0</text>
</g>
<!-- SW2 -->
<g id="node6" class="node"><title>SW2</title>
<polygon fill="#006699" stroke="#006699" points="524.974,-223 433.974,-223 433.974,-150 524.974,-150 524.974,-223"/>
<text text-anchor="middle" x="479.474" y="-182.8" font-family="Helvetica,sans-Serif" font-size="14.00" fill="white">SW2</text>
</g>
<!-- R2&#45;&#45;SW2 -->
<g id="edge2" class="edge"><title>R2&#45;&#45;SW2</title>
<path fill="none" stroke="green" stroke-dasharray="5,2" d="M395.382,-80.6781C412.365,-89.6329 431.538,-101.894 445.474,-117 454.116,-126.368 461.058,-138.343 466.359,-149.652"/>
<text text-anchor="middle" x="506.474" y="-120.8" font-family="Courier,monospace" font-size="14.00" fill="white"> &#160;&#160;&#160;&#160;&#160;&#160;&#160;&#160;&#160;&#160;&#160;</text>
<text text-anchor="middle" x="437.359" y="-138.452" font-family="Courier,monospace" font-size="14.00" fill="white">Eth0/11</text>
<text text-anchor="middle" x="420.382" y="-69.4781" font-family="Courier,monospace" font-size="14.00" fill="white">Eth0/1</text>
</g>
<!-- SW1&#45;&#45;R2 -->
<g id="edge3" class="edge"><title>SW1&#45;&#45;R2</title>
<path fill="none" stroke="green" stroke-dasharray="5,2" d="M323.709,-149.721C327.649,-143.993 331.389,-137.977 334.474,-132 339.743,-121.788 344.067,-110.069 347.443,-99.2453"/>
<text text-anchor="middle" x="391.474" y="-120.8" font-family="Courier,monospace" font-size="14.00" fill="white"> &#160;&#160;&#160;&#160;&#160;&#160;&#160;&#160;&#160;&#160;&#160;</text>
<text text-anchor="middle" x="322.443" y="-103.045" font-family="Courier,monospace" font-size="14.00" fill="white">Eth0/0</text>
<text text-anchor="middle" x="298.709" y="-138.521" font-family="Courier,monospace" font-size="14.00" fill="white">Eth0/2</text>
</g>
<!-- R6 -->
<g id="node4" class="node"><title>R6</title>
<polygon fill="#006699" stroke="#006699" points="86.9737,-347 9.97367,-347 9.97367,-274 86.9737,-274 86.9737,-347"/>
<text text-anchor="middle" x="48.4737" y="-306.8" font-family="Helvetica,sans-Serif" font-size="14.00" fill="white">R6</text>
</g>
<!-- SW1&#45;&#45;R6 -->
<g id="edge4" class="edge"><title>SW1&#45;&#45;R6</title>
<path fill="none" stroke="green" stroke-dasharray="5,2" d="M248.855,-192.517C189.699,-199.944 91.0528,-215.77 65.4737,-241 56.75,-249.604 52.2477,-261.939 50,-273.776"/>
<text text-anchor="middle" x="115.474" y="-244.8" font-family="Courier,monospace" font-size="14.00" fill="white"> &#160;&#160;&#160;&#160;&#160;&#160;&#160;&#160;&#160;&#160;&#160;</text>
<text text-anchor="middle" x="25" y="-262.576" font-family="Courier,monospace" font-size="14.00" fill="white">Eth0/1</text>
<text text-anchor="middle" x="223.855" y="-181.317" font-family="Courier,monospace" font-size="14.00" fill="white">Eth0/5</text>
</g>
<!-- R3 -->
<g id="node5" class="node"><title>R3</title>
<polygon fill="#006699" stroke="#006699" points="270.974,-347 193.974,-347 193.974,-274 270.974,-274 270.974,-347"/>
<text text-anchor="middle" x="232.474" y="-306.8" font-family="Helvetica,sans-Serif" font-size="14.00" fill="white">R3</text>
</g>
<!-- SW1&#45;&#45;R3 -->
<g id="edge5" class="edge"><title>SW1&#45;&#45;R3</title>
<path fill="none" stroke="green" stroke-dasharray="5,2" d="M248.698,-194.85C221.571,-201.815 189.299,-215.25 172.474,-241 161.491,-257.808 176.172,-274.798 193.756,-287.652"/>
<text text-anchor="middle" x="222.474" y="-244.8" font-family="Courier,monospace" font-size="14.00" fill="white"> &#160;&#160;&#160;&#160;&#160;&#160;&#160;&#160;&#160;&#160;&#160;</text>
<text text-anchor="middle" x="168.756" y="-276.452" font-family="Courier,monospace" font-size="14.00" fill="white">Eth0/0</text>
<text text-anchor="middle" x="223.698" y="-198.65" font-family="Courier,monospace" font-size="14.00" fill="white">Eth0/3</text>
</g>
<!-- R1 -->
<g id="node7" class="node"><title>R1</title>
<polygon fill="#006699" stroke="#006699" points="516.974,-347 439.974,-347 439.974,-274 516.974,-274 516.974,-347"/>
<text text-anchor="middle" x="478.474" y="-306.8" font-family="Helvetica,sans-Serif" font-size="14.00" fill="white">R1</text>
</g>
<!-- SW1&#45;&#45;R1 -->
<g id="edge9" class="edge"><title>SW1&#45;&#45;R1</title>
<path fill="none" stroke="green" stroke-dasharray="5,2" d="M340.204,-213.996C354.239,-222.392 369.627,-231.869 383.474,-241 402.316,-253.425 422.679,-267.954 439.701,-280.425"/>
<text text-anchor="middle" x="454.474" y="-244.8" font-family="Courier,monospace" font-size="14.00" fill="white"> &#160;&#160;&#160;&#160;&#160;&#160;&#160;&#160;&#160;&#160;&#160;</text>
<text text-anchor="middle" x="414.701" y="-269.225" font-family="Courier,monospace" font-size="14.00" fill="white">Eth0/0</text>
<text text-anchor="middle" x="365.204" y="-202.796" font-family="Courier,monospace" font-size="14.00" fill="white">Eth0/1</text>
</g>
<!-- R5 -->
<g id="node3" class="node"><title>R5</title>
<polygon fill="#006699" stroke="#006699" points="208.974,-471 131.974,-471 131.974,-398 208.974,-398 208.974,-471"/>
<text text-anchor="middle" x="170.474" y="-430.8" font-family="Helvetica,sans-Serif" font-size="14.00" fill="white">R5</text>
</g>
<!-- R3&#45;&#45;SW1 -->
<g id="edge10" class="edge"><title>R3&#45;&#45;SW1</title>
<path fill="none" stroke="green" stroke-dasharray="5,2" d="M261.709,-273.721C265.649,-267.993 269.389,-261.977 272.474,-256 277.743,-245.788 282.067,-234.069 285.443,-223.245"/>
<text text-anchor="middle" x="329.474" y="-244.8" font-family="Courier,monospace" font-size="14.00" fill="white"> &#160;&#160;&#160;&#160;&#160;&#160;&#160;&#160;&#160;&#160;&#160;</text>
<text text-anchor="middle" x="260.443" y="-227.045" font-family="Courier,monospace" font-size="14.00" fill="white">Eth0/3</text>
<text text-anchor="middle" x="236.709" y="-262.521" font-family="Courier,monospace" font-size="14.00" fill="white">Eth0/0</text>
</g>
<!-- R3&#45;&#45;R5 -->
<g id="edge1" class="edge"><title>R3&#45;&#45;R5</title>
<path fill="none" stroke="green" stroke-dasharray="5,2" d="M193.692,-334.267C183.223,-342.511 173.214,-352.841 167.474,-365 162.748,-375.011 161.851,-386.789 162.626,-397.728"/>
<text text-anchor="middle" x="217.474" y="-368.8" font-family="Courier,monospace" font-size="14.00" fill="white"> &#160;&#160;&#160;&#160;&#160;&#160;&#160;&#160;&#160;&#160;&#160;</text>
<text text-anchor="middle" x="137.626" y="-386.528" font-family="Courier,monospace" font-size="14.00" fill="white">Eth0/0</text>
<text text-anchor="middle" x="168.692" y="-323.067" font-family="Courier,monospace" font-size="14.00" fill="white">Eth0/2</text>
</g>
<!-- R4 -->
<g id="node8" class="node"><title>R4</title>
<polygon fill="#006699" stroke="#006699" points="331.974,-471 254.974,-471 254.974,-398 331.974,-398 331.974,-471"/>
<text text-anchor="middle" x="293.474" y="-430.8" font-family="Helvetica,sans-Serif" font-size="14.00" fill="white">R4</text>
</g>
<!-- R3&#45;&#45;R4 -->
<g id="edge7" class="edge"><title>R3&#45;&#45;R4</title>
<path fill="none" stroke="green" stroke-dasharray="5,2" d="M260.754,-347.045C264.672,-352.854 268.4,-358.955 271.474,-365 276.681,-375.244 280.987,-386.971 284.367,-397.794"/>
<text text-anchor="middle" x="328.474" y="-368.8" font-family="Courier,monospace" font-size="14.00" fill="white"> &#160;&#160;&#160;&#160;&#160;&#160;&#160;&#160;&#160;&#160;&#160;</text>
<text text-anchor="middle" x="259.367" y="-386.594" font-family="Courier,monospace" font-size="14.00" fill="white">Eth0/0</text>
<text text-anchor="middle" x="235.754" y="-350.845" font-family="Courier,monospace" font-size="14.00" fill="white">Eth0/1</text>
</g>
<!-- R1&#45;&#45;SW1 -->
<g id="edge8" class="edge"><title>R1&#45;&#45;SW1</title>
<path fill="none" stroke="green" stroke-dasharray="5,2" d="M516.152,-273.921C523.507,-262.874 526.712,-250.986 518.474,-241 491.682,-208.525 466.485,-232.512 425.474,-223 396.896,-216.372 365.131,-207.794 340.038,-200.731"/>
<text text-anchor="middle" x="572.474" y="-244.8" font-family="Courier,monospace" font-size="14.00" fill="white"> &#160;&#160;&#160;&#160;&#160;&#160;&#160;&#160;&#160;&#160;&#160;</text>
<text text-anchor="middle" x="365.038" y="-189.531" font-family="Courier,monospace" font-size="14.00" fill="white">Eth0/1</text>
<text text-anchor="middle" x="491.152" y="-262.721" font-family="Courier,monospace" font-size="14.00" fill="white">Eth0/0</text>
</g>
</g>
</svg>
